<svg width="75" height="75" viewBox="0 0 75 75" fill="none" xmlns="http://www.w3.org/2000/svg">
<g clip-path="url(#clip0)">
<path d="M0.971375 65.0248C0.971375 70.2608 5.21575 74.5046 10.4512 74.5046H65.0117C70.2481 74.5046 74.4919 70.2602 74.4919 65.0248V10.4643C74.4919 5.22793 70.2475 0.984131 65.012 0.984131H10.4515C5.21517 0.984131 0.971375 5.2285 0.971375 10.464V65.0245V65.0248Z" fill="#563D7C"/>
<path d="M31.4592 33.506V23.0945H40.6237C41.4967 23.0945 42.3382 23.1671 43.1486 23.3128C43.9591 23.4581 44.6762 23.7177 45.2997 24.0919C45.9229 24.4661 46.4217 24.9856 46.7959 25.6505C47.1699 26.3156 47.3571 27.1677 47.3571 28.2065C47.3571 30.0769 46.7959 31.4279 45.6736 32.259C44.5516 33.0904 43.1176 33.506 41.3718 33.506H31.4592ZM21.6709 15.4883V60.0026H43.2423C45.2374 60.0026 47.1805 59.7533 49.0716 59.2545C50.9628 58.7556 52.646 57.9868 54.1216 56.9478C55.5969 55.9087 56.7712 54.5681 57.6439 52.9266C58.517 51.2847 58.9532 49.3416 58.9532 47.0972C58.9532 44.3123 58.2778 41.933 56.9271 39.9588C55.5762 37.9844 53.5291 36.6024 50.7859 35.8127C52.781 34.8569 54.2879 33.6306 55.3062 32.1343C56.3243 30.6381 56.8335 28.7679 56.8335 26.5232C56.8335 24.4451 56.4906 22.6996 55.8048 21.2863C55.119 19.8734 54.1526 18.7407 52.9056 17.8886C51.6589 17.0365 50.1627 16.4234 48.4168 16.0494C46.6713 15.6752 44.7385 15.4883 42.6188 15.4883H21.6709ZM31.4592 52.3964V40.1768H42.1199C44.2397 40.1768 45.9439 40.665 47.2325 41.642C48.5208 42.6188 49.1653 44.25 49.1653 46.536C49.1653 47.7 48.9677 48.6558 48.5728 49.4039C48.1779 50.152 47.648 50.7445 46.9829 51.1807C46.3181 51.6173 45.549 51.9289 44.6762 52.1161C43.8031 52.3028 42.889 52.3964 41.933 52.3964H31.4592Z" fill="white"/>
</g>
<defs>
<clipPath id="clip0">
<rect width="73.5205" height="73.5205" fill="white" transform="translate(0.972046 0.984009)"/>
</clipPath>
</defs>
</svg>
