<svg width="73" height="73" viewBox="0 0 73 73" fill="none" xmlns="http://www.w3.org/2000/svg">
<path d="M1.52063 1.78735H71.4348V71.7015H1.52063V1.78735Z" fill="#F5DE19"/>
<path d="M48.4873 56.4096C49.083 57.6196 50.0085 58.6367 51.1571 59.3435C52.3057 60.0503 53.6307 60.4182 54.9794 60.4047C57.701 60.4047 59.4414 59.0439 59.4414 57.1587C59.4414 54.9114 57.6536 54.1074 54.6572 52.7965L53.0143 52.0924C48.2701 50.0724 45.1239 47.543 45.1239 42.1946C45.1239 37.2681 48.8694 33.5152 54.7446 33.5152C56.6466 33.3779 58.5468 33.8035 60.2084 34.7391C61.87 35.6747 63.2194 37.0788 64.0882 38.7763L58.952 42.0597C58.6174 41.2181 58.0349 40.498 57.2818 39.995C56.5286 39.4919 55.6403 39.2298 54.7347 39.2432C54.3395 39.2036 53.9405 39.2468 53.563 39.37C53.1855 39.4932 52.8378 39.6936 52.5421 39.9586C52.2463 40.2236 52.009 40.5473 51.8453 40.909C51.6815 41.2708 51.5949 41.6627 51.591 42.0597C51.591 44.0298 52.812 44.8288 55.6311 46.0548L57.274 46.759C62.8572 49.1535 66.0133 51.593 66.0133 57.0788C66.0133 62.994 61.3665 66.235 55.1267 66.235C52.6954 66.39 50.2713 65.838 48.1468 64.6457C46.0223 63.4534 44.2882 61.6718 43.1539 59.5158L48.4873 56.4096ZM25.2783 56.9789C26.3095 58.8092 27.2484 60.3573 29.5056 60.3573C31.663 60.3573 33.0263 59.5133 33.0263 56.2298V33.8898H39.5957V56.3172C39.5957 63.1189 35.6006 66.2151 29.7853 66.2151C27.7297 66.3274 25.6882 65.8152 23.9292 64.7456C22.1702 63.676 20.776 62.0992 19.9299 60.2224L25.2783 56.9789Z" fill="black"/>
</svg>
